<svg xmlns="http://www.w3.org/2000/svg"  viewBox="0 0 48 48" width="48px" height="48px" baseProfile="basic"><path d="M43,22H5v17c0,1.657,1.343,3,3,3h32c1.657,0,3-1.343,3-3V22z"/><path fill="#fff" d="M15,7h18c4.971,0,9,4.029,9,9v21c0,1.105-0.895,2-2,2H15"/><path d="M40,40H15c-0.553,0-1-0.448-1-1s0.447-1,1-1h25c0.552,0,1-0.449,1-1V16c0-4.411-3.589-8-8-8H15c-0.553,0-1-0.448-1-1	s0.447-1,1-1h18c5.514,0,10,4.486,10,10v21C43,38.654,41.654,40,40,40z"/><path fill="#fff" d="M22,39H8c-1.105,0-2-0.895-2-2V16c0-4.971,4.029-9,9-9h0c4.971,0,9,4.029,9,9v21	C24,38.105,23.105,39,22,39z"/><path d="M22,40H8c-1.654,0-3-1.346-3-3V16C5,10.486,9.486,6,15,6s10,4.486,10,10v21C25,38.654,23.654,40,22,40z M15,8	c-4.411,0-8,3.589-8,8v21c0,0.551,0.448,1,1,1h14c0.552,0,1-0.449,1-1V16C23,11.589,19.411,8,15,8z"/><path d="M20,16H10c0,0,0,0.672,0,1.5s0.672,1.5,1.5,1.5c0.386,0,6.614,0,7,0c0.828,0,1.5-0.672,1.5-1.5S20,16,20,16z"/><path d="M38,30c0,0.552-0.448,1-1,1h-3c-0.552,0-1-0.448-1-1v-4h-4c-0.552,0-1-0.448-1-1c0-0.552,0.448-1,1-1h8c0.552,0,1,0.448,1,1	V30z"/></svg>